# xmcd
#
# Track frame offsets:
#	150
#	13615
#	30507
#	48540
#	62271
#	76690
#	90350
#	102863
#	117914
#	129657
#	151121
#
# Disc length: 2162 seconds
#
# Revision: 1
# Processed by: cddbd v1.5PL3 Copyright (c) Steve Scherf et al.
# Submitted via: EasyCDDAExtractor 7.0.4.1
#
DISCID=7208700b
DTITLE=BIG DEZ - Sail on blues
DYEAR=2003
DGENRE=Blues
TTITLE0=Let's have some fun
TTITLE1=Don't be afraid of the dark
TTITLE2=Mistery woman
TTITLE3=Bad news
TTITLE4=The come back
TTITLE5=One way ticket
TTITLE6=Holes in new Orleans
TTITLE7=Overdrive lover
TTITLE8=Dam square
TTITLE9=Love can be draining
TTITLE10=Sail on blues
EXTD=
EXTT0=
EXTT1=
EXTT2=
EXTT3=
EXTT4=
EXTT5=
EXTT6=
EXTT7=
EXTT8=
EXTT9=
EXTT10=
PLAYORDER=
